<mxfile host="app.diagrams.net" agent="Mozilla/5.0 (Windows NT 10.0; Win64; x64) AppleWebKit/537.36 (KHTML, like Gecko) Chrome/131.0.0.0 Safari/537.36 Edg/131.0.0.0" version="25.0.1">
  <diagram name="Page-1" id="2YBvvXClWsGukQMizWep">
    <mxGraphModel dx="1500" dy="879" grid="1" gridSize="10" guides="1" tooltips="1" connect="1" arrows="1" fold="1" page="1" pageScale="1" pageWidth="1169" pageHeight="827" math="0" shadow="0">
      <root>
        <mxCell id="0" />
        <mxCell id="1" parent="0" />
        <mxCell id="WDG2gQRsmhuKpaqDuRJV-80" style="edgeStyle=orthogonalEdgeStyle;rounded=0;orthogonalLoop=1;jettySize=auto;html=1;exitX=1;exitY=0.5;exitDx=0;exitDy=0;strokeWidth=2;" edge="1" parent="1" source="WDG2gQRsmhuKpaqDuRJV-1">
          <mxGeometry relative="1" as="geometry">
            <mxPoint x="564" y="160" as="targetPoint" />
          </mxGeometry>
        </mxCell>
        <mxCell id="WDG2gQRsmhuKpaqDuRJV-1" value="&lt;font style=&quot;font-size: 20px;&quot; face=&quot;Times New Roman&quot;&gt;&lt;b style=&quot;&quot;&gt;PIN&lt;/b&gt;&lt;/font&gt;" style="whiteSpace=wrap;html=1;aspect=fixed;" vertex="1" parent="1">
          <mxGeometry x="214" y="120" width="80" height="80" as="geometry" />
        </mxCell>
        <mxCell id="WDG2gQRsmhuKpaqDuRJV-3" value="" style="endArrow=none;html=1;rounded=0;strokeWidth=2;" edge="1" parent="1">
          <mxGeometry width="50" height="50" relative="1" as="geometry">
            <mxPoint x="74" y="80" as="sourcePoint" />
            <mxPoint x="1094" y="80" as="targetPoint" />
          </mxGeometry>
        </mxCell>
        <mxCell id="WDG2gQRsmhuKpaqDuRJV-4" value="" style="endArrow=none;html=1;rounded=0;strokeWidth=2;" edge="1" parent="1">
          <mxGeometry width="50" height="50" relative="1" as="geometry">
            <mxPoint x="74" y="80" as="sourcePoint" />
            <mxPoint x="74" y="680" as="targetPoint" />
          </mxGeometry>
        </mxCell>
        <mxCell id="WDG2gQRsmhuKpaqDuRJV-5" value="" style="endArrow=none;html=1;rounded=0;strokeWidth=2;" edge="1" parent="1">
          <mxGeometry width="50" height="50" relative="1" as="geometry">
            <mxPoint x="74" y="680" as="sourcePoint" />
            <mxPoint x="1094" y="680" as="targetPoint" />
          </mxGeometry>
        </mxCell>
        <mxCell id="WDG2gQRsmhuKpaqDuRJV-6" value="" style="endArrow=none;html=1;rounded=0;strokeWidth=2;" edge="1" parent="1">
          <mxGeometry width="50" height="50" relative="1" as="geometry">
            <mxPoint x="1094" y="80" as="sourcePoint" />
            <mxPoint x="1094" y="680" as="targetPoint" />
          </mxGeometry>
        </mxCell>
        <mxCell id="WDG2gQRsmhuKpaqDuRJV-7" value="&lt;font face=&quot;Times New Roman&quot; style=&quot;font-size: 20px;&quot;&gt;&lt;b&gt;data_bus&lt;/b&gt;&lt;/font&gt;" style="text;html=1;align=center;verticalAlign=middle;resizable=0;points=[];autosize=1;strokeColor=none;fillColor=none;" vertex="1" parent="1">
          <mxGeometry x="984" y="630" width="100" height="40" as="geometry" />
        </mxCell>
        <mxCell id="WDG2gQRsmhuKpaqDuRJV-10" style="edgeStyle=orthogonalEdgeStyle;rounded=0;orthogonalLoop=1;jettySize=auto;html=1;exitX=0.5;exitY=0;exitDx=0;exitDy=0;strokeWidth=2;" edge="1" parent="1" source="WDG2gQRsmhuKpaqDuRJV-9">
          <mxGeometry relative="1" as="geometry">
            <mxPoint x="1094" y="559.5714285714287" as="targetPoint" />
          </mxGeometry>
        </mxCell>
        <mxCell id="WDG2gQRsmhuKpaqDuRJV-9" value="&lt;font style=&quot;font-size: 20px;&quot; face=&quot;Times New Roman&quot;&gt;&lt;b style=&quot;&quot;&gt;ALU&lt;/b&gt;&lt;/font&gt;" style="shape=trapezoid;perimeter=trapezoidPerimeter;whiteSpace=wrap;html=1;fixedSize=1;rotation=90;size=20;" vertex="1" parent="1">
          <mxGeometry x="914" y="520" width="120" height="80" as="geometry" />
        </mxCell>
        <mxCell id="WDG2gQRsmhuKpaqDuRJV-14" style="edgeStyle=orthogonalEdgeStyle;rounded=0;orthogonalLoop=1;jettySize=auto;html=1;exitX=0.5;exitY=1;exitDx=0;exitDy=0;entryX=0;entryY=0.5;entryDx=0;entryDy=0;strokeWidth=2;" edge="1" parent="1" source="WDG2gQRsmhuKpaqDuRJV-13" target="WDG2gQRsmhuKpaqDuRJV-9">
          <mxGeometry relative="1" as="geometry" />
        </mxCell>
        <mxCell id="WDG2gQRsmhuKpaqDuRJV-13" value="STATE" style="rounded=0;whiteSpace=wrap;html=1;fontStyle=1;fontFamily=Times New Roman;fontSize=16;" vertex="1" parent="1">
          <mxGeometry x="934" y="320" width="80" height="120" as="geometry" />
        </mxCell>
        <mxCell id="WDG2gQRsmhuKpaqDuRJV-16" value="&lt;font style=&quot;font-size: 16px;&quot; face=&quot;Times New Roman&quot;&gt;alu_opcode&lt;/font&gt;" style="text;html=1;align=left;verticalAlign=middle;resizable=0;points=[];autosize=1;strokeColor=none;fillColor=none;" vertex="1" parent="1">
          <mxGeometry x="984" y="460" width="100" height="30" as="geometry" />
        </mxCell>
        <mxCell id="WDG2gQRsmhuKpaqDuRJV-18" value="" style="endArrow=classic;html=1;rounded=0;strokeWidth=2;entryX=-0.021;entryY=0.337;entryDx=0;entryDy=0;entryPerimeter=0;" edge="1" parent="1">
          <mxGeometry width="50" height="50" relative="1" as="geometry">
            <mxPoint x="850" y="415" as="sourcePoint" />
            <mxPoint x="934" y="415" as="targetPoint" />
          </mxGeometry>
        </mxCell>
        <mxCell id="WDG2gQRsmhuKpaqDuRJV-20" value="" style="endArrow=classic;html=1;rounded=0;strokeWidth=2;entryX=-0.021;entryY=0.337;entryDx=0;entryDy=0;entryPerimeter=0;" edge="1" parent="1">
          <mxGeometry width="50" height="50" relative="1" as="geometry">
            <mxPoint x="850" y="347" as="sourcePoint" />
            <mxPoint x="934" y="347" as="targetPoint" />
          </mxGeometry>
        </mxCell>
        <mxCell id="WDG2gQRsmhuKpaqDuRJV-21" value="&lt;font face=&quot;Times New Roman&quot; style=&quot;font-size: 16px;&quot;&gt;clock&lt;/font&gt;" style="text;html=1;align=right;verticalAlign=middle;resizable=0;points=[];autosize=1;strokeColor=none;fillColor=none;" vertex="1" parent="1">
          <mxGeometry x="780" y="330" width="60" height="30" as="geometry" />
        </mxCell>
        <mxCell id="WDG2gQRsmhuKpaqDuRJV-22" value="&lt;font face=&quot;Times New Roman&quot; style=&quot;font-size: 16px;&quot;&gt;operator&lt;/font&gt;" style="text;html=1;align=right;verticalAlign=middle;resizable=0;points=[];autosize=1;strokeColor=none;fillColor=none;" vertex="1" parent="1">
          <mxGeometry x="760" y="399" width="80" height="30" as="geometry" />
        </mxCell>
        <mxCell id="WDG2gQRsmhuKpaqDuRJV-23" value="&lt;font style=&quot;font-size: 20px;&quot; face=&quot;Times New Roman&quot;&gt;&lt;b style=&quot;&quot;&gt;DISPLAY&lt;/b&gt;&lt;/font&gt;" style="whiteSpace=wrap;html=1;aspect=fixed;" vertex="1" parent="1">
          <mxGeometry x="894" y="140" width="120" height="120" as="geometry" />
        </mxCell>
        <mxCell id="WDG2gQRsmhuKpaqDuRJV-24" value="&lt;font face=&quot;Verdana&quot; style=&quot;font-size: 20px;&quot;&gt;&lt;b style=&quot;&quot;&gt;+&lt;/b&gt;&lt;/font&gt;" style="whiteSpace=wrap;html=1;aspect=fixed;" vertex="1" parent="1">
          <mxGeometry x="794" y="490" width="60" height="60" as="geometry" />
        </mxCell>
        <mxCell id="WDG2gQRsmhuKpaqDuRJV-25" value="&lt;font face=&quot;Verdana&quot; style=&quot;font-size: 20px;&quot;&gt;&lt;b style=&quot;&quot;&gt;-&lt;/b&gt;&lt;/font&gt;" style="whiteSpace=wrap;html=1;aspect=fixed;" vertex="1" parent="1">
          <mxGeometry x="794" y="570" width="60" height="60" as="geometry" />
        </mxCell>
        <mxCell id="WDG2gQRsmhuKpaqDuRJV-29" style="edgeStyle=orthogonalEdgeStyle;rounded=0;orthogonalLoop=1;jettySize=auto;html=1;exitX=1;exitY=0.5;exitDx=0;exitDy=0;entryX=0.161;entryY=1.021;entryDx=0;entryDy=0;entryPerimeter=0;strokeWidth=2;" edge="1" parent="1" source="WDG2gQRsmhuKpaqDuRJV-24" target="WDG2gQRsmhuKpaqDuRJV-9">
          <mxGeometry relative="1" as="geometry" />
        </mxCell>
        <mxCell id="WDG2gQRsmhuKpaqDuRJV-31" style="edgeStyle=orthogonalEdgeStyle;rounded=0;orthogonalLoop=1;jettySize=auto;html=1;exitX=1;exitY=0.5;exitDx=0;exitDy=0;entryX=0.83;entryY=1;entryDx=0;entryDy=0;entryPerimeter=0;strokeWidth=2;" edge="1" parent="1" source="WDG2gQRsmhuKpaqDuRJV-25" target="WDG2gQRsmhuKpaqDuRJV-9">
          <mxGeometry relative="1" as="geometry" />
        </mxCell>
        <mxCell id="WDG2gQRsmhuKpaqDuRJV-33" value="" style="endArrow=classic;html=1;rounded=0;strokeWidth=2;entryX=-0.021;entryY=0.337;entryDx=0;entryDy=0;entryPerimeter=0;" edge="1" parent="1">
          <mxGeometry width="50" height="50" relative="1" as="geometry">
            <mxPoint x="736" y="500" as="sourcePoint" />
            <mxPoint x="794" y="500" as="targetPoint" />
          </mxGeometry>
        </mxCell>
        <mxCell id="WDG2gQRsmhuKpaqDuRJV-34" value="" style="endArrow=classic;html=1;rounded=0;strokeWidth=2;entryX=-0.021;entryY=0.337;entryDx=0;entryDy=0;entryPerimeter=0;" edge="1" parent="1">
          <mxGeometry width="50" height="50" relative="1" as="geometry">
            <mxPoint x="736" y="540" as="sourcePoint" />
            <mxPoint x="794" y="540" as="targetPoint" />
          </mxGeometry>
        </mxCell>
        <mxCell id="WDG2gQRsmhuKpaqDuRJV-35" value="" style="endArrow=classic;html=1;rounded=0;strokeWidth=2;entryX=-0.021;entryY=0.337;entryDx=0;entryDy=0;entryPerimeter=0;" edge="1" parent="1">
          <mxGeometry width="50" height="50" relative="1" as="geometry">
            <mxPoint x="736" y="579.29" as="sourcePoint" />
            <mxPoint x="794" y="579.29" as="targetPoint" />
          </mxGeometry>
        </mxCell>
        <mxCell id="WDG2gQRsmhuKpaqDuRJV-36" value="" style="endArrow=classic;html=1;rounded=0;strokeWidth=2;entryX=-0.021;entryY=0.337;entryDx=0;entryDy=0;entryPerimeter=0;" edge="1" parent="1">
          <mxGeometry width="50" height="50" relative="1" as="geometry">
            <mxPoint x="736" y="619.29" as="sourcePoint" />
            <mxPoint x="794" y="619.29" as="targetPoint" />
          </mxGeometry>
        </mxCell>
        <mxCell id="WDG2gQRsmhuKpaqDuRJV-37" value="&lt;font face=&quot;Times New Roman&quot; style=&quot;font-size: 16px;&quot;&gt;R1&lt;/font&gt;" style="text;html=1;align=right;verticalAlign=middle;resizable=0;points=[];autosize=1;strokeColor=none;fillColor=none;" vertex="1" parent="1">
          <mxGeometry x="684" y="485" width="40" height="30" as="geometry" />
        </mxCell>
        <mxCell id="WDG2gQRsmhuKpaqDuRJV-38" value="&lt;font face=&quot;Times New Roman&quot; style=&quot;font-size: 16px;&quot;&gt;R2&lt;/font&gt;" style="text;html=1;align=right;verticalAlign=middle;resizable=0;points=[];autosize=1;strokeColor=none;fillColor=none;" vertex="1" parent="1">
          <mxGeometry x="684" y="525" width="40" height="30" as="geometry" />
        </mxCell>
        <mxCell id="WDG2gQRsmhuKpaqDuRJV-39" value="&lt;font face=&quot;Times New Roman&quot; style=&quot;font-size: 16px;&quot;&gt;R1&lt;/font&gt;" style="text;html=1;align=right;verticalAlign=middle;resizable=0;points=[];autosize=1;strokeColor=none;fillColor=none;" vertex="1" parent="1">
          <mxGeometry x="684" y="565" width="40" height="30" as="geometry" />
        </mxCell>
        <mxCell id="WDG2gQRsmhuKpaqDuRJV-40" value="&lt;font face=&quot;Times New Roman&quot; style=&quot;font-size: 16px;&quot;&gt;R2&lt;/font&gt;" style="text;html=1;align=right;verticalAlign=middle;resizable=0;points=[];autosize=1;strokeColor=none;fillColor=none;" vertex="1" parent="1">
          <mxGeometry x="684" y="605" width="40" height="30" as="geometry" />
        </mxCell>
        <mxCell id="WDG2gQRsmhuKpaqDuRJV-41" value="&lt;font style=&quot;font-size: 30px;&quot;&gt;R2&lt;/font&gt;" style="rounded=0;whiteSpace=wrap;html=1;fontStyle=1;fontFamily=Times New Roman;fontSize=16;" vertex="1" parent="1">
          <mxGeometry x="214" y="230" width="80" height="140" as="geometry" />
        </mxCell>
        <mxCell id="WDG2gQRsmhuKpaqDuRJV-42" value="&lt;font style=&quot;font-size: 30px;&quot;&gt;R1&lt;/font&gt;" style="rounded=0;whiteSpace=wrap;html=1;fontStyle=1;fontFamily=Times New Roman;fontSize=16;" vertex="1" parent="1">
          <mxGeometry x="214" y="460" width="80" height="140" as="geometry" />
        </mxCell>
        <mxCell id="WDG2gQRsmhuKpaqDuRJV-46" value="" style="endArrow=classic;html=1;rounded=0;strokeWidth=2;" edge="1" parent="1">
          <mxGeometry width="50" height="50" relative="1" as="geometry">
            <mxPoint x="294" y="559.29" as="sourcePoint" />
            <mxPoint x="374" y="559" as="targetPoint" />
          </mxGeometry>
        </mxCell>
        <mxCell id="WDG2gQRsmhuKpaqDuRJV-47" value="&lt;font style=&quot;font-size: 16px;&quot; face=&quot;Times New Roman&quot;&gt;R1&lt;/font&gt;" style="text;html=1;align=left;verticalAlign=middle;resizable=0;points=[];autosize=1;strokeColor=none;fillColor=none;" vertex="1" parent="1">
          <mxGeometry x="384" y="545" width="40" height="30" as="geometry" />
        </mxCell>
        <mxCell id="WDG2gQRsmhuKpaqDuRJV-48" value="" style="endArrow=classic;html=1;rounded=0;strokeWidth=2;" edge="1" parent="1">
          <mxGeometry width="50" height="50" relative="1" as="geometry">
            <mxPoint x="294" y="348.28999999999996" as="sourcePoint" />
            <mxPoint x="414" y="348" as="targetPoint" />
          </mxGeometry>
        </mxCell>
        <mxCell id="WDG2gQRsmhuKpaqDuRJV-49" value="&lt;font style=&quot;font-size: 16px;&quot; face=&quot;Times New Roman&quot;&gt;R2&lt;/font&gt;" style="text;html=1;align=left;verticalAlign=middle;resizable=0;points=[];autosize=1;strokeColor=none;fillColor=none;" vertex="1" parent="1">
          <mxGeometry x="424" y="334" width="40" height="30" as="geometry" />
        </mxCell>
        <mxCell id="WDG2gQRsmhuKpaqDuRJV-75" style="edgeStyle=orthogonalEdgeStyle;rounded=0;orthogonalLoop=1;jettySize=auto;html=1;exitX=1;exitY=0.5;exitDx=0;exitDy=0;entryX=0;entryY=0.75;entryDx=0;entryDy=0;strokeWidth=2;" edge="1" parent="1" source="WDG2gQRsmhuKpaqDuRJV-53" target="WDG2gQRsmhuKpaqDuRJV-55">
          <mxGeometry relative="1" as="geometry" />
        </mxCell>
        <mxCell id="WDG2gQRsmhuKpaqDuRJV-53" value="&lt;font face=&quot;Verdana&quot; style=&quot;font-size: 20px;&quot;&gt;&lt;b style=&quot;&quot;&gt;*&lt;/b&gt;&lt;/font&gt;" style="whiteSpace=wrap;html=1;aspect=fixed;" vertex="1" parent="1">
          <mxGeometry x="454" y="170" width="60" height="60" as="geometry" />
        </mxCell>
        <mxCell id="WDG2gQRsmhuKpaqDuRJV-74" style="edgeStyle=orthogonalEdgeStyle;rounded=0;orthogonalLoop=1;jettySize=auto;html=1;exitX=1;exitY=0.5;exitDx=0;exitDy=0;entryX=0.75;entryY=1;entryDx=0;entryDy=0;" edge="1" parent="1" source="WDG2gQRsmhuKpaqDuRJV-54" target="WDG2gQRsmhuKpaqDuRJV-72">
          <mxGeometry relative="1" as="geometry" />
        </mxCell>
        <mxCell id="WDG2gQRsmhuKpaqDuRJV-54" value="&lt;font face=&quot;Verdana&quot;&gt;&lt;span style=&quot;font-size: 20px;&quot;&gt;&lt;b&gt;/&lt;/b&gt;&lt;/span&gt;&lt;/font&gt;" style="whiteSpace=wrap;html=1;aspect=fixed;" vertex="1" parent="1">
          <mxGeometry x="454" y="250" width="60" height="60" as="geometry" />
        </mxCell>
        <mxCell id="WDG2gQRsmhuKpaqDuRJV-73" style="edgeStyle=orthogonalEdgeStyle;rounded=0;orthogonalLoop=1;jettySize=auto;html=1;exitX=1;exitY=0.5;exitDx=0;exitDy=0;entryX=0.25;entryY=1;entryDx=0;entryDy=0;" edge="1" parent="1" source="WDG2gQRsmhuKpaqDuRJV-55" target="WDG2gQRsmhuKpaqDuRJV-72">
          <mxGeometry relative="1" as="geometry" />
        </mxCell>
        <mxCell id="WDG2gQRsmhuKpaqDuRJV-55" value="&lt;font face=&quot;Verdana&quot; style=&quot;font-size: 20px;&quot;&gt;&lt;b style=&quot;&quot;&gt;+&lt;/b&gt;&lt;/font&gt;" style="whiteSpace=wrap;html=1;aspect=fixed;" vertex="1" parent="1">
          <mxGeometry x="564" y="140" width="60" height="60" as="geometry" />
        </mxCell>
        <mxCell id="WDG2gQRsmhuKpaqDuRJV-56" value="" style="endArrow=classic;html=1;rounded=0;strokeWidth=2;entryX=0;entryY=0.25;entryDx=0;entryDy=0;" edge="1" parent="1" target="WDG2gQRsmhuKpaqDuRJV-54">
          <mxGeometry width="50" height="50" relative="1" as="geometry">
            <mxPoint x="334" y="350" as="sourcePoint" />
            <mxPoint x="424" y="358" as="targetPoint" />
            <Array as="points">
              <mxPoint x="334" y="265" />
            </Array>
          </mxGeometry>
        </mxCell>
        <mxCell id="WDG2gQRsmhuKpaqDuRJV-57" value="" style="endArrow=classic;html=1;rounded=0;strokeWidth=2;entryX=0;entryY=0.25;entryDx=0;entryDy=0;" edge="1" parent="1" target="WDG2gQRsmhuKpaqDuRJV-53">
          <mxGeometry width="50" height="50" relative="1" as="geometry">
            <mxPoint x="334" y="350" as="sourcePoint" />
            <mxPoint x="424" y="275" as="targetPoint" />
            <Array as="points">
              <mxPoint x="334" y="185" />
            </Array>
          </mxGeometry>
        </mxCell>
        <mxCell id="WDG2gQRsmhuKpaqDuRJV-58" value="" style="endArrow=classic;html=1;rounded=0;strokeWidth=2;entryX=-0.021;entryY=0.337;entryDx=0;entryDy=0;entryPerimeter=0;" edge="1" parent="1">
          <mxGeometry width="50" height="50" relative="1" as="geometry">
            <mxPoint x="396" y="220" as="sourcePoint" />
            <mxPoint x="454" y="220" as="targetPoint" />
          </mxGeometry>
        </mxCell>
        <mxCell id="WDG2gQRsmhuKpaqDuRJV-59" value="" style="endArrow=classic;html=1;rounded=0;strokeWidth=2;entryX=-0.021;entryY=0.337;entryDx=0;entryDy=0;entryPerimeter=0;" edge="1" parent="1">
          <mxGeometry width="50" height="50" relative="1" as="geometry">
            <mxPoint x="396" y="293" as="sourcePoint" />
            <mxPoint x="454" y="293" as="targetPoint" />
          </mxGeometry>
        </mxCell>
        <mxCell id="WDG2gQRsmhuKpaqDuRJV-62" value="&lt;font face=&quot;Times New Roman&quot; style=&quot;font-size: 16px;&quot;&gt;x0A&lt;/font&gt;" style="text;html=1;align=right;verticalAlign=middle;resizable=0;points=[];autosize=1;strokeColor=none;fillColor=none;" vertex="1" parent="1">
          <mxGeometry x="338" y="205" width="50" height="30" as="geometry" />
        </mxCell>
        <mxCell id="WDG2gQRsmhuKpaqDuRJV-63" value="&lt;font face=&quot;Times New Roman&quot; style=&quot;font-size: 16px;&quot;&gt;x0A&lt;/font&gt;" style="text;html=1;align=right;verticalAlign=middle;resizable=0;points=[];autosize=1;strokeColor=none;fillColor=none;" vertex="1" parent="1">
          <mxGeometry x="338" y="278" width="50" height="30" as="geometry" />
        </mxCell>
        <mxCell id="WDG2gQRsmhuKpaqDuRJV-99" style="edgeStyle=orthogonalEdgeStyle;rounded=0;orthogonalLoop=1;jettySize=auto;html=1;exitX=0.5;exitY=0;exitDx=0;exitDy=0;entryX=0.75;entryY=1;entryDx=0;entryDy=0;strokeWidth=2;" edge="1" parent="1" source="WDG2gQRsmhuKpaqDuRJV-72" target="WDG2gQRsmhuKpaqDuRJV-81">
          <mxGeometry relative="1" as="geometry" />
        </mxCell>
        <mxCell id="WDG2gQRsmhuKpaqDuRJV-72" value="&lt;font face=&quot;Times New Roman&quot;&gt;&lt;b style=&quot;&quot;&gt;MUX&lt;/b&gt;&lt;/font&gt;" style="shape=trapezoid;perimeter=trapezoidPerimeter;whiteSpace=wrap;html=1;fixedSize=1;rotation=-180;size=20;" vertex="1" parent="1">
          <mxGeometry x="594" y="308" width="80" height="40" as="geometry" />
        </mxCell>
        <mxCell id="WDG2gQRsmhuKpaqDuRJV-77" value="" style="endArrow=classic;html=1;rounded=0;strokeWidth=2;entryX=0;entryY=0.5;entryDx=0;entryDy=0;" edge="1" parent="1" target="WDG2gQRsmhuKpaqDuRJV-72">
          <mxGeometry width="50" height="50" relative="1" as="geometry">
            <mxPoint x="694" y="328" as="sourcePoint" />
            <mxPoint x="804" y="460" as="targetPoint" />
          </mxGeometry>
        </mxCell>
        <mxCell id="WDG2gQRsmhuKpaqDuRJV-78" value="&lt;font style=&quot;font-size: 16px;&quot; face=&quot;Times New Roman&quot;&gt;backspace&lt;/font&gt;" style="text;html=1;align=left;verticalAlign=middle;resizable=0;points=[];autosize=1;strokeColor=none;fillColor=none;" vertex="1" parent="1">
          <mxGeometry x="704" y="313" width="90" height="30" as="geometry" />
        </mxCell>
        <mxCell id="WDG2gQRsmhuKpaqDuRJV-98" style="edgeStyle=orthogonalEdgeStyle;rounded=0;orthogonalLoop=1;jettySize=auto;html=1;exitX=0.5;exitY=0;exitDx=0;exitDy=0;entryX=0;entryY=0.75;entryDx=0;entryDy=0;strokeWidth=2;" edge="1" parent="1" source="WDG2gQRsmhuKpaqDuRJV-81" target="WDG2gQRsmhuKpaqDuRJV-41">
          <mxGeometry relative="1" as="geometry">
            <Array as="points">
              <mxPoint x="174" y="440" />
              <mxPoint x="174" y="335" />
            </Array>
          </mxGeometry>
        </mxCell>
        <mxCell id="WDG2gQRsmhuKpaqDuRJV-81" value="&lt;font face=&quot;Times New Roman&quot;&gt;&lt;b style=&quot;&quot;&gt;MUX&lt;/b&gt;&lt;/font&gt;" style="shape=trapezoid;perimeter=trapezoidPerimeter;whiteSpace=wrap;html=1;fixedSize=1;rotation=-90;size=20;" vertex="1" parent="1">
          <mxGeometry x="454" y="420" width="80" height="40" as="geometry" />
        </mxCell>
        <mxCell id="WDG2gQRsmhuKpaqDuRJV-84" value="" style="endArrow=classic;html=1;rounded=0;strokeWidth=2;entryX=0;entryY=0.5;entryDx=0;entryDy=0;" edge="1" parent="1" target="WDG2gQRsmhuKpaqDuRJV-81">
          <mxGeometry width="50" height="50" relative="1" as="geometry">
            <mxPoint x="494" y="480" as="sourcePoint" />
            <mxPoint x="674" y="338" as="targetPoint" />
          </mxGeometry>
        </mxCell>
        <mxCell id="WDG2gQRsmhuKpaqDuRJV-88" value="" style="edgeStyle=orthogonalEdgeStyle;rounded=0;orthogonalLoop=1;jettySize=auto;html=1;" edge="1" parent="1" source="WDG2gQRsmhuKpaqDuRJV-85" target="WDG2gQRsmhuKpaqDuRJV-81">
          <mxGeometry relative="1" as="geometry" />
        </mxCell>
        <mxCell id="WDG2gQRsmhuKpaqDuRJV-85" value="&lt;font face=&quot;Times New Roman&quot; style=&quot;font-size: 16px;&quot;&gt;result&lt;/font&gt;" style="text;html=1;align=center;verticalAlign=middle;resizable=0;points=[];autosize=1;strokeColor=none;fillColor=none;" vertex="1" parent="1">
          <mxGeometry x="464" y="500" width="60" height="30" as="geometry" />
        </mxCell>
        <mxCell id="WDG2gQRsmhuKpaqDuRJV-89" value="" style="endArrow=classic;html=1;rounded=0;strokeWidth=2;entryX=0;entryY=0.25;entryDx=0;entryDy=0;" edge="1" parent="1" target="WDG2gQRsmhuKpaqDuRJV-41">
          <mxGeometry width="50" height="50" relative="1" as="geometry">
            <mxPoint x="174" y="265" as="sourcePoint" />
            <mxPoint x="674" y="338" as="targetPoint" />
          </mxGeometry>
        </mxCell>
        <mxCell id="WDG2gQRsmhuKpaqDuRJV-91" value="&lt;font face=&quot;Times New Roman&quot;&gt;&lt;span style=&quot;font-size: 16px;&quot;&gt;[pulse]&lt;/span&gt;&lt;/font&gt;&lt;div&gt;&lt;font face=&quot;Times New Roman&quot;&gt;&lt;span style=&quot;font-size: 16px;&quot;&gt;pin&lt;/span&gt;&lt;/font&gt;&lt;/div&gt;&lt;div&gt;&lt;font face=&quot;Times New Roman&quot;&gt;&lt;span style=&quot;font-size: 16px;&quot;&gt;result&lt;/span&gt;&lt;/font&gt;&lt;/div&gt;&lt;div&gt;&lt;font face=&quot;Times New Roman&quot;&gt;&lt;span style=&quot;font-size: 16px;&quot;&gt;backspace&lt;/span&gt;&lt;/font&gt;&lt;/div&gt;" style="text;html=1;align=right;verticalAlign=middle;resizable=0;points=[];autosize=1;strokeColor=none;fillColor=none;" vertex="1" parent="1">
          <mxGeometry x="74" y="220" width="90" height="90" as="geometry" />
        </mxCell>
        <mxCell id="WDG2gQRsmhuKpaqDuRJV-92" value="" style="endArrow=classic;html=1;rounded=0;strokeWidth=2;entryX=0;entryY=0.25;entryDx=0;entryDy=0;" edge="1" parent="1" target="WDG2gQRsmhuKpaqDuRJV-42">
          <mxGeometry width="50" height="50" relative="1" as="geometry">
            <mxPoint x="174" y="495" as="sourcePoint" />
            <mxPoint x="214" y="500" as="targetPoint" />
          </mxGeometry>
        </mxCell>
        <mxCell id="WDG2gQRsmhuKpaqDuRJV-93" value="&lt;font face=&quot;Times New Roman&quot; style=&quot;font-size: 16px;&quot;&gt;[pulse]&lt;/font&gt;&lt;div&gt;&lt;font face=&quot;Times New Roman&quot; style=&quot;font-size: 16px;&quot;&gt;operator&lt;/font&gt;&lt;/div&gt;" style="text;html=1;align=right;verticalAlign=middle;resizable=0;points=[];autosize=1;strokeColor=none;fillColor=none;" vertex="1" parent="1">
          <mxGeometry x="84" y="470" width="80" height="50" as="geometry" />
        </mxCell>
        <mxCell id="WDG2gQRsmhuKpaqDuRJV-94" value="" style="endArrow=classic;html=1;rounded=0;strokeWidth=2;entryX=0;entryY=0.75;entryDx=0;entryDy=0;" edge="1" parent="1" target="WDG2gQRsmhuKpaqDuRJV-42">
          <mxGeometry width="50" height="50" relative="1" as="geometry">
            <mxPoint x="74" y="565" as="sourcePoint" />
            <mxPoint x="384" y="569" as="targetPoint" />
          </mxGeometry>
        </mxCell>
        <mxCell id="WDG2gQRsmhuKpaqDuRJV-95" value="" style="endArrow=classic;html=1;rounded=0;strokeWidth=2;entryX=-0.021;entryY=0.337;entryDx=0;entryDy=0;entryPerimeter=0;" edge="1" parent="1">
          <mxGeometry width="50" height="50" relative="1" as="geometry">
            <mxPoint x="831" y="200" as="sourcePoint" />
            <mxPoint x="889" y="200" as="targetPoint" />
          </mxGeometry>
        </mxCell>
        <mxCell id="WDG2gQRsmhuKpaqDuRJV-96" value="&lt;font face=&quot;Times New Roman&quot; style=&quot;font-size: 16px;&quot;&gt;R2&lt;/font&gt;" style="text;html=1;align=right;verticalAlign=middle;resizable=0;points=[];autosize=1;strokeColor=none;fillColor=none;" vertex="1" parent="1">
          <mxGeometry x="779" y="185" width="40" height="30" as="geometry" />
        </mxCell>
        <mxCell id="WDG2gQRsmhuKpaqDuRJV-97" value="&lt;font style=&quot;font-size: 30px;&quot; face=&quot;Times New Roman&quot;&gt;Data Path for the 8-Bit Infix Calculator (Addition &amp;amp; Subtraction)&lt;/font&gt;" style="text;html=1;align=center;verticalAlign=middle;resizable=0;points=[];autosize=1;strokeColor=none;fillColor=none;" vertex="1" parent="1">
          <mxGeometry x="174" y="680" width="810" height="50" as="geometry" />
        </mxCell>
        <mxCell id="WDG2gQRsmhuKpaqDuRJV-100" style="edgeStyle=orthogonalEdgeStyle;rounded=0;orthogonalLoop=1;jettySize=auto;html=1;strokeWidth=2;entryX=0.25;entryY=1;entryDx=0;entryDy=0;" edge="1" parent="1" target="WDG2gQRsmhuKpaqDuRJV-81">
          <mxGeometry relative="1" as="geometry">
            <mxPoint x="1104" y="569.5714285714287" as="targetPoint" />
            <mxPoint x="634" y="680" as="sourcePoint" />
            <Array as="points">
              <mxPoint x="634" y="460" />
            </Array>
          </mxGeometry>
        </mxCell>
        <mxCell id="WDG2gQRsmhuKpaqDuRJV-101" style="edgeStyle=orthogonalEdgeStyle;rounded=0;orthogonalLoop=1;jettySize=auto;html=1;strokeWidth=2;entryX=0.5;entryY=1;entryDx=0;entryDy=0;" edge="1" parent="1" target="WDG2gQRsmhuKpaqDuRJV-41">
          <mxGeometry relative="1" as="geometry">
            <mxPoint x="1104" y="569.5714285714287" as="targetPoint" />
            <mxPoint x="334" y="410" as="sourcePoint" />
          </mxGeometry>
        </mxCell>
        <mxCell id="WDG2gQRsmhuKpaqDuRJV-102" style="edgeStyle=orthogonalEdgeStyle;rounded=0;orthogonalLoop=1;jettySize=auto;html=1;strokeWidth=2;entryX=0.5;entryY=1;entryDx=0;entryDy=0;" edge="1" parent="1">
          <mxGeometry relative="1" as="geometry">
            <mxPoint x="254" y="600" as="targetPoint" />
            <mxPoint x="334" y="640" as="sourcePoint" />
          </mxGeometry>
        </mxCell>
        <mxCell id="WDG2gQRsmhuKpaqDuRJV-103" value="&lt;font style=&quot;font-size: 16px;&quot; face=&quot;Times New Roman&quot;&gt;clear&lt;/font&gt;&lt;div&gt;&lt;font style=&quot;font-size: 16px;&quot; face=&quot;Times New Roman&quot;&gt;clear_entry&lt;/font&gt;&lt;/div&gt;" style="text;html=1;align=left;verticalAlign=middle;resizable=0;points=[];autosize=1;strokeColor=none;fillColor=none;" vertex="1" parent="1">
          <mxGeometry x="348" y="374" width="100" height="50" as="geometry" />
        </mxCell>
        <mxCell id="WDG2gQRsmhuKpaqDuRJV-104" value="&lt;font style=&quot;font-size: 16px;&quot; face=&quot;Times New Roman&quot;&gt;clear&lt;/font&gt;" style="text;html=1;align=left;verticalAlign=middle;resizable=0;points=[];autosize=1;strokeColor=none;fillColor=none;" vertex="1" parent="1">
          <mxGeometry x="348" y="626" width="50" height="30" as="geometry" />
        </mxCell>
        <mxCell id="WDG2gQRsmhuKpaqDuRJV-110" style="edgeStyle=orthogonalEdgeStyle;rounded=0;orthogonalLoop=1;jettySize=auto;html=1;strokeWidth=2;entryX=0.5;entryY=1;entryDx=0;entryDy=0;exitX=0.657;exitY=0.003;exitDx=0;exitDy=0;exitPerimeter=0;" edge="1" parent="1" source="WDG2gQRsmhuKpaqDuRJV-93" target="WDG2gQRsmhuKpaqDuRJV-41">
          <mxGeometry relative="1" as="geometry">
            <mxPoint x="110" y="420" as="targetPoint" />
            <mxPoint x="140" y="460" as="sourcePoint" />
            <Array as="points">
              <mxPoint x="137" y="410" />
              <mxPoint x="254" y="410" />
            </Array>
          </mxGeometry>
        </mxCell>
        <mxCell id="WDG2gQRsmhuKpaqDuRJV-111" value="&lt;font face=&quot;Times New Roman&quot; style=&quot;font-size: 16px;&quot;&gt;[pulse]&lt;/font&gt;&lt;div&gt;&lt;font face=&quot;Times New Roman&quot; style=&quot;font-size: 16px;&quot;&gt;result&lt;/font&gt;&lt;/div&gt;" style="text;html=1;align=right;verticalAlign=middle;resizable=0;points=[];autosize=1;strokeColor=none;fillColor=none;" vertex="1" parent="1">
          <mxGeometry x="89" y="616" width="70" height="50" as="geometry" />
        </mxCell>
        <mxCell id="WDG2gQRsmhuKpaqDuRJV-112" style="edgeStyle=orthogonalEdgeStyle;rounded=0;orthogonalLoop=1;jettySize=auto;html=1;strokeWidth=2;entryX=0.5;entryY=1;entryDx=0;entryDy=0;" edge="1" parent="1" target="WDG2gQRsmhuKpaqDuRJV-42">
          <mxGeometry relative="1" as="geometry">
            <mxPoint x="258" y="625.57" as="targetPoint" />
            <mxPoint x="170" y="640" as="sourcePoint" />
          </mxGeometry>
        </mxCell>
        <mxCell id="WDG2gQRsmhuKpaqDuRJV-113" value="" style="endArrow=classic;html=1;rounded=0;strokeWidth=2;entryX=-0.021;entryY=0.337;entryDx=0;entryDy=0;entryPerimeter=0;" edge="1" parent="1">
          <mxGeometry width="50" height="50" relative="1" as="geometry">
            <mxPoint x="876" y="382" as="sourcePoint" />
            <mxPoint x="934" y="382" as="targetPoint" />
          </mxGeometry>
        </mxCell>
        <mxCell id="WDG2gQRsmhuKpaqDuRJV-114" value="&lt;font face=&quot;Times New Roman&quot; style=&quot;font-size: 16px;&quot;&gt;clear&lt;/font&gt;&lt;div&gt;&lt;font face=&quot;Times New Roman&quot; style=&quot;font-size: 16px;&quot;&gt;result&lt;/font&gt;&lt;/div&gt;" style="text;html=1;align=right;verticalAlign=middle;resizable=0;points=[];autosize=1;strokeColor=none;fillColor=none;" vertex="1" parent="1">
          <mxGeometry x="806" y="355" width="60" height="50" as="geometry" />
        </mxCell>
      </root>
    </mxGraphModel>
  </diagram>
</mxfile>
